<?xml version="1.0" encoding="utf-8"?>
<!-- Generator: Adobe Illustrator 19.2.0, SVG Export Plug-In . SVG Version: 6.00 Build 0)  -->
<!DOCTYPE svg PUBLIC "-//W3C//DTD SVG 1.1//EN" "http://www.w3.org/Graphics/SVG/1.1/DTD/svg11.dtd">
<svg version="1.1" id="Layer_1" xmlns="http://www.w3.org/2000/svg" xmlns:xlink="http://www.w3.org/1999/xlink" x="0px" y="0px"
	 viewBox="0 0 118 125" enable-background="new 0 0 118 125" xml:space="preserve">
<path fill="#231F20" d="M109,55.6c-1.3-3.5-1.8-7.4-2.5-11.1v0c-2.6-20.3-19.8-28.5-20.9-29c0,0-0.1,0-0.1,0
	c-8.6-4.7-22.8-6.3-27.9-5.2C63,8.8,67.7,5.6,67,0c-1.3,3.2-7,6.5-10.3,7.8C53.5,9,49.3,9.5,46,10.6C0.1,26.6,7.4,68.8,15.3,82.1
	c-12-6.6-5.1-25.9-15.2-28.5C3.5,58,2.3,66.2,2.6,71.1c0.9,16.9,9,31.1,23.6,40.1c8.2,5,25.9,2.5,28.1,13.8c3-1.9,5-5,5.9-8.3h0
	c0.5-2.3-0.7-4.5-1.4-5.5c0-0.1-0.1-0.1-0.1-0.2c-0.1-0.1-0.1-0.1-0.1-0.2c-0.1-0.1-0.1-0.2-0.2-0.2c-0.1-0.1-0.1-0.1-0.1-0.1
	c-2-2.5-5.7-5.3-11.6-4.6c-5.5,0.7-11.5-0.8-15.9-4.3c-0.5-0.4-5.2-4.3-4.4-8.2c2,4.1,6.9,4.8,6.9,4.7c-1.5-1.8-1.6-3.8-1.2-5.7
	c-0.1,0.9,1.8,3.5,4.2,4.5c0.9,0.4,1.9,0.5,3,0.6c0.7,0,1.4,0,2.1-0.1c1-0.2,1.8-0.7,2.7-1.2c0.7-0.4,1.3-0.8,2-1.2
	c0.6-0.4,1.3-0.7,2-1c6.5-2.2,11.2,2.7,12.4,6.5c1.2-3.8,5.8-8.8,12.4-6.5c0.7,0.2,1.3,0.6,2,1c0.7,0.4,1.3,0.8,2,1.2
	c0.9,0.5,1.7,1,2.7,1.2c0.7,0.2,1.4,0.2,2.1,0.1c1,0,2-0.2,3-0.6c2.3-1,4.3-3.6,4.2-4.5c0.4,1.9,0,4.2-1.2,5.7c0,0.1,2.3-0.3,3.4-1
	c0.7-0.4,1.3-0.8,1.9-1.3c0.9-0.8,1.4-1.8,1.6-2.4c0.8,3.9-3.9,7.8-4.4,8.2c-0.2,0.1-0.4,0.3-0.6,0.5c0.6-0.1,18.7-5.1,18.6-33.9V68
	c0.2-3.3,0-6.2-0.5-7.9c1.4,2.9,7.4,6.7,10.5,5.9C114.3,64.5,110.3,59.3,109,55.6z M79.8,86.4c-5.1-1-6.4-5-6.7-6.8
	c-0.9,1.9-0.6,4.6,2.3,6.8c-5.7,1.2-11.9,0.8-15.8,0C42.9,83,39.5,71.2,39.7,67.6c0.1-1.8,0.6-3.6,1.7-5.1c1.8-2.4,5.1-3.5,8.1-3.3
	c3.1,0.2,6.1,1.5,8.1,3.9c2,2.4,2.5,5.7,1.6,8.7c-0.4,1.4-0.6,1.8-2.1,3.1c6.9-2.2,9-8.6,8.2-12.6c-0.8-4-2.7-6.6-7.6-8
	c-3.5-1-8.3-0.1-11.3-0.2c-3.1,0.1-6.9-2.5-9.6-6.8C33.5,42,33.4,36,36.6,34.1c3.2-2,8.5,0.8,11.8,6.1c0.5,0.7,0.8,1.5,1.2,2.2
	c2.3-1,5.3-1.6,9.5-1.5c0.9,0,2.1,0.1,3.3,0.2c0.1-0.8,0.4-1.5,0.7-2.3c1.6-3.7,5-5.8,7.5-4.7c2.5,1.1,3.2,5,1.6,8.7
	c-0.4,0.8-0.8,1.5-1.3,2.2c2.8,2.5,5.2,6.6,6.7,13.1C78.5,62.3,82.3,83.4,79.8,86.4z M54.2,58.5c0.9-0.4,4-2.2,7,0.3
	c3,2.5,1,6.8-0.2,8C60.6,61.3,54.8,58.9,54.2,58.5z"/>
</svg>
